<?xml version="1.0" encoding="UTF-8"?>
<!-- Created with Inkscape (http://www.inkscape.org/) -->
<svg width="162.97mm" height="105.88mm" version="1.1" viewBox="0 0 162.97 105.88" xmlns="http://www.w3.org/2000/svg">
 <defs>
  <clipPath id="clipPath2">
   <path d="m96 96v432h624v-432z" clip-rule="evenodd"/>
  </clipPath>
  <clipPath id="clipPath4">
   <path d="m127.68 491.2h592.32v0.79999h-592.32z" clip-rule="evenodd"/>
  </clipPath>
  <clipPath id="clipPath6">
   <path d="m96 96v432h624v-432z" clip-rule="evenodd"/>
  </clipPath>
  <clipPath id="clipPath8">
   <path d="m96 96v432h624v-432z" clip-rule="evenodd"/>
  </clipPath>
  <clipPath id="clipPath10">
   <path d="m96 96v432h624v-432z" clip-rule="evenodd"/>
  </clipPath>
  <clipPath id="clipPath12">
   <path d="m96 96v432h624v-432z" clip-rule="evenodd"/>
  </clipPath>
  <clipPath id="clipPath14">
   <path d="m96 96v432h624v-432z" clip-rule="evenodd"/>
  </clipPath>
  <clipPath id="clipPath16">
   <path d="m96 96v432h624v-432z" clip-rule="evenodd"/>
  </clipPath>
  <clipPath id="clipPath18">
   <path d="m96 96v432h624v-432z" clip-rule="evenodd"/>
  </clipPath>
  <clipPath id="clipPath20">
   <path d="m96 96v432h624v-432z" clip-rule="evenodd"/>
  </clipPath>
  <clipPath id="clipPath22">
   <path d="m96 96v432h624v-432z" clip-rule="evenodd"/>
  </clipPath>
  <clipPath id="clipPath24">
   <path d="m96 96v432h624v-432z" clip-rule="evenodd"/>
  </clipPath>
  <clipPath id="clipPath26">
   <path d="m96 96v432h624v-432z" clip-rule="evenodd"/>
  </clipPath>
  <clipPath id="clipPath28">
   <path d="m96 96v432h624v-432z" clip-rule="evenodd"/>
  </clipPath>
  <clipPath id="clipPath30">
   <path d="m96 96v432h624v-432z" clip-rule="evenodd"/>
  </clipPath>
  <clipPath id="clipPath32">
   <path d="m96 96v432h624v-432z" clip-rule="evenodd"/>
  </clipPath>
  <clipPath id="clipPath34">
   <path d="m96 96v432h624v-432z" clip-rule="evenodd"/>
  </clipPath>
  <clipPath id="clipPath36">
   <path d="m96 96v432h624v-432z" clip-rule="evenodd"/>
  </clipPath>
  <clipPath id="clipPath38">
   <path d="m96 96v432h624v-432z" clip-rule="evenodd"/>
  </clipPath>
  <clipPath id="clipPath40">
   <path d="m96 96v432h624v-432z" clip-rule="evenodd"/>
  </clipPath>
  <clipPath id="clipPath42">
   <path d="m96 96v432h624v-432z" clip-rule="evenodd"/>
  </clipPath>
  <clipPath id="clipPath44">
   <path d="m96 96v432h624v-432z" clip-rule="evenodd"/>
  </clipPath>
  <clipPath id="clipPath46">
   <path d="m96 96v432h624v-432z" clip-rule="evenodd"/>
  </clipPath>
  <clipPath id="clipPath48">
   <path d="m96 96v432h624v-432z" clip-rule="evenodd"/>
  </clipPath>
  <clipPath id="clipPath50">
   <path d="m96 96v432h624v-432z" clip-rule="evenodd"/>
  </clipPath>
  <clipPath id="clipPath52">
   <path d="m96 96v432h624v-432z" clip-rule="evenodd"/>
  </clipPath>
  <clipPath id="clipPath54">
   <path d="m96 96v432h624v-432z" clip-rule="evenodd"/>
  </clipPath>
  <clipPath id="clipPath56">
   <path d="m96 96v432h624v-432z" clip-rule="evenodd"/>
  </clipPath>
  <clipPath id="clipPath58">
   <path d="m96 96v432h624v-432z" clip-rule="evenodd"/>
  </clipPath>
  <clipPath id="clipPath60">
   <path d="m96 96v432h624v-432z" clip-rule="evenodd"/>
  </clipPath>
  <clipPath id="clipPath62">
   <path d="m96 96v432h624v-432z" clip-rule="evenodd"/>
  </clipPath>
  <clipPath id="clipPath64">
   <path d="m96 96v432h624v-432z" clip-rule="evenodd"/>
  </clipPath>
  <clipPath id="clipPath66">
   <path d="m96 96v432h624v-432z" clip-rule="evenodd"/>
  </clipPath>
  <clipPath id="clipPath68">
   <path d="m96 96v432h624v-432z" clip-rule="evenodd"/>
  </clipPath>
  <clipPath id="clipPath70">
   <path d="m96 96v432h624v-432z" clip-rule="evenodd"/>
  </clipPath>
  <clipPath id="clipPath72">
   <path d="m96 96v432h624v-432z" clip-rule="evenodd"/>
  </clipPath>
  <clipPath id="clipPath74">
   <path d="m96 96v432h624v-432z" clip-rule="evenodd"/>
  </clipPath>
  <clipPath id="clipPath76">
   <path d="m96 96v432h624v-432z" clip-rule="evenodd"/>
  </clipPath>
  <clipPath id="clipPath78">
   <path d="m96 96v432h624v-432z" clip-rule="evenodd"/>
  </clipPath>
  <clipPath id="clipPath80">
   <path d="m96 96v432h624v-432z" clip-rule="evenodd"/>
  </clipPath>
  <clipPath id="clipPath82">
   <path d="m96 96v432h624v-432z" clip-rule="evenodd"/>
  </clipPath>
  <clipPath id="clipPath84">
   <path d="m96 96v432h624v-432z" clip-rule="evenodd"/>
  </clipPath>
  <clipPath id="clipPath86">
   <path d="m96 96v432h624v-432z" clip-rule="evenodd"/>
  </clipPath>
  <clipPath id="clipPath88">
   <path d="m96 96v432h624v-432z" clip-rule="evenodd"/>
  </clipPath>
  <clipPath id="clipPath90">
   <path d="m96 96v432h624v-432z" clip-rule="evenodd"/>
  </clipPath>
  <clipPath id="clipPath92">
   <path d="m96 96v432h624v-432z" clip-rule="evenodd"/>
  </clipPath>
  <clipPath id="clipPath94">
   <path d="m96 96v432h624v-432z" clip-rule="evenodd"/>
  </clipPath>
  <clipPath id="clipPath96">
   <path d="m96 96v432h624v-432z" clip-rule="evenodd"/>
  </clipPath>
  <clipPath id="clipPath98">
   <path d="m96 96v432h624v-432z" clip-rule="evenodd"/>
  </clipPath>
  <clipPath id="clipPath100">
   <path d="m96 96v432h624v-432z" clip-rule="evenodd"/>
  </clipPath>
  <clipPath id="clipPath102">
   <path d="m96 96v432h624v-432z" clip-rule="evenodd"/>
  </clipPath>
  <clipPath id="clipPath104">
   <path d="m96 96v432h624v-432z" clip-rule="evenodd"/>
  </clipPath>
  <clipPath id="clipPath106">
   <path d="m96 96v432h624v-432z" clip-rule="evenodd"/>
  </clipPath>
  <clipPath id="clipPath108">
   <path d="m96 96v432h624v-432z" clip-rule="evenodd"/>
  </clipPath>
  <clipPath id="clipPath110">
   <path d="m96 96v432h624v-432z" clip-rule="evenodd"/>
  </clipPath>
  <clipPath id="clipPath112">
   <path d="m96 96v432h624v-432z" clip-rule="evenodd"/>
  </clipPath>
  <clipPath id="clipPath114">
   <path d="m96 96v432h624v-432z" clip-rule="evenodd"/>
  </clipPath>
  <clipPath id="clipPath116">
   <path d="m96 96v432h624v-432z" clip-rule="evenodd"/>
  </clipPath>
  <clipPath id="clipPath118">
   <path d="m96 96v432h624v-432z" clip-rule="evenodd"/>
  </clipPath>
  <clipPath id="clipPath120">
   <path d="m96 96v432h624v-432z" clip-rule="evenodd"/>
  </clipPath>
  <clipPath id="clipPath122">
   <path d="m96 96v432h624v-432z" clip-rule="evenodd"/>
  </clipPath>
  <clipPath id="clipPath124">
   <path d="m96 96v432h624v-432z" clip-rule="evenodd"/>
  </clipPath>
  <clipPath id="clipPath126">
   <path d="m96 96v432h624v-432z" clip-rule="evenodd"/>
  </clipPath>
  <clipPath id="clipPath128">
   <path d="m96 96v432h624v-432z" clip-rule="evenodd"/>
  </clipPath>
  <clipPath id="clipPath130">
   <path d="m96 96v432h624v-432z" clip-rule="evenodd"/>
  </clipPath>
  <clipPath id="clipPath132">
   <path d="m96 96v432h624v-432z" clip-rule="evenodd"/>
  </clipPath>
  <clipPath id="clipPath134">
   <path d="m96 96v432h624v-432z" clip-rule="evenodd"/>
  </clipPath>
  <clipPath id="clipPath136">
   <path d="m96 96v432h624v-432z" clip-rule="evenodd"/>
  </clipPath>
  <clipPath id="clipPath138">
   <path d="m96 96v432h624v-432z" clip-rule="evenodd"/>
  </clipPath>
  <clipPath id="clipPath140">
   <path d="m96 96v432h624v-432z" clip-rule="evenodd"/>
  </clipPath>
  <clipPath id="clipPath142">
   <path d="m96 96v432h624v-432z" clip-rule="evenodd"/>
  </clipPath>
  <clipPath id="clipPath144">
   <path d="m96 96v432h624v-432z" clip-rule="evenodd"/>
  </clipPath>
  <clipPath id="clipPath146">
   <path d="m96 96v432h624v-432z" clip-rule="evenodd"/>
  </clipPath>
  <clipPath id="clipPath148">
   <path d="m96 96v432h624v-432z" clip-rule="evenodd"/>
  </clipPath>
  <clipPath id="clipPath150">
   <path d="m96 96v432h624v-432z" clip-rule="evenodd"/>
  </clipPath>
  <clipPath id="clipPath152">
   <path d="m96 96v432h624v-432z" clip-rule="evenodd"/>
  </clipPath>
  <clipPath id="clipPath154">
   <path d="m96 96v432h624v-432z" clip-rule="evenodd"/>
  </clipPath>
  <clipPath id="clipPath156">
   <path d="m96 96v432h624v-432z" clip-rule="evenodd"/>
  </clipPath>
  <clipPath id="clipPath158">
   <path d="m96 96v432h624v-432z" clip-rule="evenodd"/>
  </clipPath>
  <clipPath id="clipPath160">
   <path d="m96 96v432h624v-432z" clip-rule="evenodd"/>
  </clipPath>
  <clipPath id="clipPath162">
   <path d="m96 96v432h624v-432z" clip-rule="evenodd"/>
  </clipPath>
  <clipPath id="clipPath164">
   <path d="m96 96v432h624v-432z" clip-rule="evenodd"/>
  </clipPath>
  <clipPath id="clipPath166">
   <path d="m96 96v432h624v-432z" clip-rule="evenodd"/>
  </clipPath>
  <clipPath id="clipPath168">
   <path d="m96 96v432h624v-432z" clip-rule="evenodd"/>
  </clipPath>
  <clipPath id="clipPath170">
   <path d="m96 96v432h624v-432z" clip-rule="evenodd"/>
  </clipPath>
  <clipPath id="clipPath172">
   <path d="m96 96v432h624v-432z" clip-rule="evenodd"/>
  </clipPath>
  <clipPath id="clipPath174">
   <path d="m96 96v432h624v-432z" clip-rule="evenodd"/>
  </clipPath>
  <clipPath id="clipPath176">
   <path d="m96 96v432h624v-432z" clip-rule="evenodd"/>
  </clipPath>
  <clipPath id="clipPath178">
   <path d="m96 96v432h624v-432z" clip-rule="evenodd"/>
  </clipPath>
  <clipPath id="clipPath180">
   <path d="m96 96v432h624v-432z" clip-rule="evenodd"/>
  </clipPath>
  <clipPath id="clipPath182">
   <path d="m96 96v432h624v-432z" clip-rule="evenodd"/>
  </clipPath>
  <clipPath id="clipPath184">
   <path d="m96 96v432h624v-432z" clip-rule="evenodd"/>
  </clipPath>
  <clipPath id="clipPath186">
   <path d="m96 96v432h624v-432z" clip-rule="evenodd"/>
  </clipPath>
  <clipPath id="clipPath188">
   <path d="m96 96v432h624v-432z" clip-rule="evenodd"/>
  </clipPath>
  <clipPath id="clipPath190">
   <path d="m96 96v432h624v-432z" clip-rule="evenodd"/>
  </clipPath>
  <clipPath id="clipPath192">
   <path d="m96 96v432h624v-432z" clip-rule="evenodd"/>
  </clipPath>
  <clipPath id="clipPath194">
   <path d="m96 96v432h624v-432z" clip-rule="evenodd"/>
  </clipPath>
  <clipPath id="clipPath196">
   <path d="m96 96v432h624v-432z" clip-rule="evenodd"/>
  </clipPath>
 </defs>
 <g transform="translate(-31.582 -14.287)">
  <path transform="matrix(.26458 0 0 .26458 4.0562 -14.118)" d="m128 107.52v384" clip-path="url(#clipPath2)" fill="none" stroke="#000" stroke-linecap="round" stroke-linejoin="round" stroke-miterlimit="10" stroke-width=".32"/>
  <path transform="matrix(.26458 0 0 .26458 4.0562 -14.118)" d="m128 491.52h592" clip-path="url(#clipPath4)" fill="none" stroke="#000" stroke-linecap="round" stroke-linejoin="round" stroke-miterlimit="10" stroke-width=".32"/>
  <text x="62.814915" y="120.12083" font-size="3.175px" stroke-width=".26458" xml:space="preserve"><tspan x="62.814915 64.577362" y="120.12083" fill="#000000" font-family="CityBlueprint" font-size="3.169px" stroke-width=".26458">30</tspan></text>
  <g fill="none" stroke="#000" stroke-linecap="round" stroke-linejoin="round" stroke-miterlimit="10" stroke-width=".32">
   <path transform="matrix(.26458 0 0 .26458 4.0562 -14.118)" d="m228.8 491.52v5.12" clip-path="url(#clipPath6)"/>
   <path transform="matrix(.26458 0 0 .26458 4.0562 -14.118)" d="m241.92 491.52v2.56" clip-path="url(#clipPath8)"/>
   <path transform="matrix(.26458 0 0 .26458 4.0562 -14.118)" d="m254.88 491.52v2.56" clip-path="url(#clipPath10)"/>
   <path transform="matrix(.26458 0 0 .26458 4.0562 -14.118)" d="m267.84 491.52v2.56" clip-path="url(#clipPath12)"/>
   <path transform="matrix(.26458 0 0 .26458 4.0562 -14.118)" d="m280.96 491.52v2.56" clip-path="url(#clipPath14)"/>
  </g>
  <text x="80.044586" y="120.12083" font-size="3.175px" stroke-width=".26458" xml:space="preserve"><tspan x="80.044586 81.80703" y="120.12083" fill="#000000" font-family="CityBlueprint" font-size="3.169px" stroke-width=".26458">60</tspan></text>
  <g fill="none" stroke="#000" stroke-linecap="round" stroke-linejoin="round" stroke-miterlimit="10" stroke-width=".32">
   <path transform="matrix(.26458 0 0 .26458 4.0562 -14.118)" d="m293.92 491.52v5.12" clip-path="url(#clipPath16)"/>
   <path transform="matrix(.26458 0 0 .26458 4.0562 -14.118)" d="m306.88 491.52v2.56" clip-path="url(#clipPath18)"/>
   <path transform="matrix(.26458 0 0 .26458 4.0562 -14.118)" d="m319.84 491.52v2.56" clip-path="url(#clipPath20)"/>
   <path transform="matrix(.26458 0 0 .26458 4.0562 -14.118)" d="m332.96 491.52v2.56" clip-path="url(#clipPath22)"/>
   <path transform="matrix(.26458 0 0 .26458 4.0562 -14.118)" d="m345.92 491.52v2.56" clip-path="url(#clipPath24)"/>
  </g>
  <text x="97.231911" y="120.12083" font-size="3.175px" stroke-width=".26458" xml:space="preserve"><tspan x="97.231911 98.994354" y="120.12083" fill="#000000" font-family="CityBlueprint" font-size="3.169px" stroke-width=".26458">90</tspan></text>
  <g fill="none" stroke="#000" stroke-linecap="round" stroke-linejoin="round" stroke-miterlimit="10" stroke-width=".32">
   <path transform="matrix(.26458 0 0 .26458 4.0562 -14.118)" d="m358.88 491.52v5.12" clip-path="url(#clipPath26)"/>
   <path transform="matrix(.26458 0 0 .26458 4.0562 -14.118)" d="m371.84 491.52v2.56" clip-path="url(#clipPath28)"/>
   <path transform="matrix(.26458 0 0 .26458 4.0562 -14.118)" d="m384.96 491.52v2.56" clip-path="url(#clipPath30)"/>
   <path transform="matrix(.26458 0 0 .26458 4.0562 -14.118)" d="m397.92 491.52v2.56" clip-path="url(#clipPath32)"/>
   <path transform="matrix(.26458 0 0 .26458 4.0562 -14.118)" d="m410.88 491.52v2.56" clip-path="url(#clipPath34)"/>
  </g>
  <text x="113.57258" y="120.12083" font-size="3.175px" stroke-width=".26458" xml:space="preserve"><tspan x="113.57258 115.33502 117.09747" y="120.12083" fill="#000000" font-family="CityBlueprint" font-size="3.169px" stroke-width=".26458">120</tspan></text>
  <g fill="none" stroke="#000" stroke-linecap="round" stroke-linejoin="round" stroke-miterlimit="10" stroke-width=".32">
   <path transform="matrix(.26458 0 0 .26458 4.0562 -14.118)" d="m424 491.52v5.12" clip-path="url(#clipPath36)"/>
   <path transform="matrix(.26458 0 0 .26458 4.0562 -14.118)" d="m436.96 491.52v2.56" clip-path="url(#clipPath38)"/>
   <path transform="matrix(.26458 0 0 .26458 4.0562 -14.118)" d="m449.92 491.52v2.56" clip-path="url(#clipPath40)"/>
   <path transform="matrix(.26458 0 0 .26458 4.0562 -14.118)" d="m462.88 491.52v2.56" clip-path="url(#clipPath42)"/>
   <path transform="matrix(.26458 0 0 .26458 4.0562 -14.118)" d="m476 491.52v2.56" clip-path="url(#clipPath44)"/>
  </g>
  <text x="130.7599" y="120.12083" font-size="3.175px" stroke-width=".26458" xml:space="preserve"><tspan x="130.7599 132.52235 134.28479" y="120.12083" fill="#000000" font-family="CityBlueprint" font-size="3.169px" stroke-width=".26458">150</tspan></text>
  <g fill="none" stroke="#000" stroke-linecap="round" stroke-linejoin="round" stroke-miterlimit="10" stroke-width=".32">
   <path transform="matrix(.26458 0 0 .26458 4.0562 -14.118)" d="m488.96 491.52v5.12" clip-path="url(#clipPath46)"/>
   <path transform="matrix(.26458 0 0 .26458 4.0562 -14.118)" d="m501.92 491.52v2.56" clip-path="url(#clipPath48)"/>
   <path transform="matrix(.26458 0 0 .26458 4.0562 -14.118)" d="m514.88 491.52v2.56" clip-path="url(#clipPath50)"/>
   <path transform="matrix(.26458 0 0 .26458 4.0562 -14.118)" d="m528 491.52v2.56" clip-path="url(#clipPath52)"/>
   <path transform="matrix(.26458 0 0 .26458 4.0562 -14.118)" d="m540.96 491.52v2.56" clip-path="url(#clipPath54)"/>
  </g>
  <text x="147.94725" y="120.12083" font-size="3.175px" stroke-width=".26458" xml:space="preserve"><tspan x="147.94725 149.70969 151.47214" y="120.12083" fill="#000000" font-family="CityBlueprint" font-size="3.169px" stroke-width=".26458">180</tspan></text>
  <g fill="none" stroke="#000" stroke-linecap="round" stroke-linejoin="round" stroke-miterlimit="10" stroke-width=".32">
   <path transform="matrix(.26458 0 0 .26458 4.0562 -14.118)" d="m553.92 491.52v5.12" clip-path="url(#clipPath56)"/>
   <path transform="matrix(.26458 0 0 .26458 4.0562 -14.118)" d="m567.04 491.52v2.56" clip-path="url(#clipPath58)"/>
   <path transform="matrix(.26458 0 0 .26458 4.0562 -14.118)" d="m580 491.52v2.56" clip-path="url(#clipPath60)"/>
   <path transform="matrix(.26458 0 0 .26458 4.0562 -14.118)" d="m592.96 491.52v2.56" clip-path="url(#clipPath62)"/>
   <path transform="matrix(.26458 0 0 .26458 4.0562 -14.118)" d="m605.92 491.52v2.56" clip-path="url(#clipPath64)"/>
  </g>
  <text x="165.17693" y="120.12083" font-size="3.175px" stroke-width=".26458" xml:space="preserve"><tspan x="165.17693 166.93936 168.70181" y="120.12083" fill="#000000" font-family="CityBlueprint" font-size="3.169px" stroke-width=".26458">210</tspan></text>
  <path transform="matrix(.26458 0 0 .26458 4.0562 -14.118)" d="m619.04 491.52v5.12" clip-path="url(#clipPath66)" fill="none" stroke="#000" stroke-linecap="round" stroke-linejoin="round" stroke-miterlimit="10" stroke-width=".32"/>
  <path transform="matrix(.26458 0 0 .26458 4.0562 -14.118)" d="m122.88 491.52h5.12" clip-path="url(#clipPath68)" fill="none" stroke="#000" stroke-linecap="round" stroke-linejoin="round" stroke-miterlimit="10" stroke-width=".32"/>
  <text x="34.790249" y="117.0305" font-size="3.175px" stroke-width=".26458" xml:space="preserve"><tspan x="34.790249" y="117.0305" fill="#000000" font-family="CityBlueprint" font-size="3.169px" stroke-width=".26458">0</tspan></text>
  <path transform="matrix(.26458 0 0 .26458 4.0562 -14.118)" d="m125.44 399.84h2.56" clip-path="url(#clipPath70)" fill="none" stroke="#000" stroke-linecap="round" stroke-linejoin="round" stroke-miterlimit="10" stroke-width=".32"/>
  <path transform="matrix(.26458 0 0 .26458 4.0562 -14.118)" d="m122.88 308h5.12" clip-path="url(#clipPath72)" fill="none" stroke="#000" stroke-linecap="round" stroke-linejoin="round" stroke-miterlimit="10" stroke-width=".32"/>
  <text x="33.012249" y="68.474167" font-size="3.175px" stroke-width=".26458" xml:space="preserve"><tspan x="33.012249 34.774693" y="68.474167" fill="#000000" font-family="CityBlueprint" font-size="3.169px" stroke-width=".26458">50</tspan></text>
  <path transform="matrix(.26458 0 0 .26458 4.0562 -14.118)" d="m125.44 216.16h2.56" clip-path="url(#clipPath74)" fill="none" stroke="#000" stroke-linecap="round" stroke-linejoin="round" stroke-miterlimit="10" stroke-width=".32"/>
  <path transform="matrix(.26458 0 0 .26458 4.0562 -14.118)" d="m122.88 124.32h5.12" clip-path="url(#clipPath76)" fill="none" stroke="#000" stroke-linecap="round" stroke-linejoin="round" stroke-miterlimit="10" stroke-width=".32"/>
  <text x="31.234247" y="19.8755" font-size="3.175px" stroke-width=".26458" xml:space="preserve"><tspan x="31.234247 32.996693 34.759136" y="19.8755" fill="#000000" font-family="CityBlueprint" font-size="3.169px" stroke-width=".26458">100</tspan></text>
  <g fill="none" stroke="#000" stroke-linecap="round" stroke-linejoin="round" stroke-miterlimit="10" stroke-width=".32">
   <path transform="matrix(.26458 0 0 .26458 4.0562 -14.118)" d="m194.24 491.04v0.47998" clip-path="url(#clipPath78)"/>
   <path transform="matrix(.26458 0 0 .26458 4.0562 -14.118)" d="m196.32 488.16v3.36" clip-path="url(#clipPath80)"/>
   <path transform="matrix(.26458 0 0 .26458 4.0562 -14.118)" d="m198.56 491.04v0.47998" clip-path="url(#clipPath82)"/>
   <path transform="matrix(.26458 0 0 .26458 4.0562 -14.118)" d="m202.88 491.04v0.47998" clip-path="url(#clipPath84)"/>
   <path transform="matrix(.26458 0 0 .26458 4.0562 -14.118)" d="m204.96 491.04v0.47998" clip-path="url(#clipPath86)"/>
   <path transform="matrix(.26458 0 0 .26458 4.0562 -14.118)" d="m220.16 487.04v4.48" clip-path="url(#clipPath88)"/>
   <path transform="matrix(.26458 0 0 .26458 4.0562 -14.118)" d="m222.4 453.28v38.24" clip-path="url(#clipPath90)"/>
   <path transform="matrix(.26458 0 0 .26458 4.0562 -14.118)" d="m224.48 452.8v38.72" clip-path="url(#clipPath92)"/>
   <path transform="matrix(.26458 0 0 .26458 4.0562 -14.118)" d="m226.72 394.72v96.8" clip-path="url(#clipPath94)"/>
   <path transform="matrix(.26458 0 0 .26458 4.0562 -14.118)" d="m228.8 485.12v6.4" clip-path="url(#clipPath96)"/>
   <path transform="matrix(.26458 0 0 .26458 4.0562 -14.118)" d="m231.04 488.8v2.72" clip-path="url(#clipPath98)"/>
   <path transform="matrix(.26458 0 0 .26458 4.0562 -14.118)" d="m244 491.04v0.47998" clip-path="url(#clipPath100)"/>
   <path transform="matrix(.26458 0 0 .26458 4.0562 -14.118)" d="m246.24 491.04v0.47998" clip-path="url(#clipPath102)"/>
   <path transform="matrix(.26458 0 0 .26458 4.0562 -14.118)" d="m248.32 480.48v11.04" clip-path="url(#clipPath104)"/>
   <path transform="matrix(.26458 0 0 .26458 4.0562 -14.118)" d="m250.56 485.6v5.92" clip-path="url(#clipPath106)"/>
   <path transform="matrix(.26458 0 0 .26458 4.0562 -14.118)" d="m252.64 433.28v58.24" clip-path="url(#clipPath108)"/>
   <path transform="matrix(.26458 0 0 .26458 4.0562 -14.118)" d="m254.88 466.88v24.64" clip-path="url(#clipPath110)"/>
   <path transform="matrix(.26458 0 0 .26458 4.0562 -14.118)" d="m257.12 458.4v33.12" clip-path="url(#clipPath112)"/>
   <path transform="matrix(.26458 0 0 .26458 4.0562 -14.118)" d="m259.2 485.92v5.6" clip-path="url(#clipPath114)"/>
   <path transform="matrix(.26458 0 0 .26458 4.0562 -14.118)" d="m261.44 487.36v4.16" clip-path="url(#clipPath116)"/>
   <path transform="matrix(.26458 0 0 .26458 4.0562 -14.118)" d="m263.52 491.04v0.47998" clip-path="url(#clipPath118)"/>
   <path transform="matrix(.26458 0 0 .26458 4.0562 -14.118)" d="m274.4 491.04v0.47998" clip-path="url(#clipPath120)"/>
   <path transform="matrix(.26458 0 0 .26458 4.0562 -14.118)" d="m276.48 491.04v0.47998" clip-path="url(#clipPath122)"/>
   <path transform="matrix(.26458 0 0 .26458 4.0562 -14.118)" d="m278.72 488.8v2.72" clip-path="url(#clipPath124)"/>
   <path transform="matrix(.26458 0 0 .26458 4.0562 -14.118)" d="m280.96 488.8v2.72" clip-path="url(#clipPath126)"/>
   <path transform="matrix(.26458 0 0 .26458 4.0562 -14.118)" d="m283.04 484.8v6.72" clip-path="url(#clipPath128)"/>
   <path transform="matrix(.26458 0 0 .26458 4.0562 -14.118)" d="m285.28 482.24v9.28" clip-path="url(#clipPath130)"/>
   <path transform="matrix(.26458 0 0 .26458 4.0562 -14.118)" d="m287.36 490.4v1.12" clip-path="url(#clipPath132)"/>
   <path transform="matrix(.26458 0 0 .26458 4.0562 -14.118)" d="m289.6 491.04v0.47998" clip-path="url(#clipPath134)"/>
   <path transform="matrix(.26458 0 0 .26458 4.0562 -14.118)" d="m306.88 491.04v0.47998" clip-path="url(#clipPath136)"/>
   <path transform="matrix(.26458 0 0 .26458 4.0562 -14.118)" d="m311.2 445.44v46.08" clip-path="url(#clipPath138)"/>
   <path transform="matrix(.26458 0 0 .26458 4.0562 -14.118)" d="m313.44 487.84v3.68" clip-path="url(#clipPath140)"/>
   <path transform="matrix(.26458 0 0 .26458 4.0562 -14.118)" d="m315.52 185.6v305.92" clip-path="url(#clipPath142)"/>
   <path transform="matrix(.26458 0 0 .26458 4.0562 -14.118)" d="m317.76 477.12v14.4" clip-path="url(#clipPath144)"/>
   <path transform="matrix(.26458 0 0 .26458 4.0562 -14.118)" d="m319.84 491.04v0.47998" clip-path="url(#clipPath146)"/>
   <path transform="matrix(.26458 0 0 .26458 4.0562 -14.118)" d="m322.08 490.72v0.79999" clip-path="url(#clipPath148)"/>
   <path transform="matrix(.26458 0 0 .26458 4.0562 -14.118)" d="m324.16 491.04v0.47998" clip-path="url(#clipPath150)"/>
   <path transform="matrix(.26458 0 0 .26458 4.0562 -14.118)" d="m332.96 491.04v0.47998" clip-path="url(#clipPath152)"/>
   <path transform="matrix(.26458 0 0 .26458 4.0562 -14.118)" d="m337.28 491.04v0.47998" clip-path="url(#clipPath154)"/>
   <path transform="matrix(.26458 0 0 .26458 4.0562 -14.118)" d="m339.36 491.04v0.47998" clip-path="url(#clipPath156)"/>
   <path transform="matrix(.26458 0 0 .26458 4.0562 -14.118)" d="m341.6 489.28v2.24" clip-path="url(#clipPath158)"/>
   <path transform="matrix(.26458 0 0 .26458 4.0562 -14.118)" d="m343.68 490.72v0.79999" clip-path="url(#clipPath160)"/>
   <path transform="matrix(.26458 0 0 .26458 4.0562 -14.118)" d="m345.92 488.16v3.36" clip-path="url(#clipPath162)"/>
   <path transform="matrix(.26458 0 0 .26458 4.0562 -14.118)" d="m348 491.04v0.47998" clip-path="url(#clipPath164)"/>
   <path transform="matrix(.26458 0 0 .26458 4.0562 -14.118)" d="m350.24 490.72v0.79999" clip-path="url(#clipPath166)"/>
   <path transform="matrix(.26458 0 0 .26458 4.0562 -14.118)" d="m352.48 491.04v0.47998" clip-path="url(#clipPath168)"/>
   <path transform="matrix(.26458 0 0 .26458 4.0562 -14.118)" d="m371.84 483.36v8.16" clip-path="url(#clipPath170)"/>
   <path transform="matrix(.26458 0 0 .26458 4.0562 -14.118)" d="m376.32 430.4v61.12" clip-path="url(#clipPath172)"/>
   <path transform="matrix(.26458 0 0 .26458 4.0562 -14.118)" d="m378.4 487.04v4.48" clip-path="url(#clipPath174)"/>
   <path transform="matrix(.26458 0 0 .26458 4.0562 -14.118)" d="m380.64 491.04v0.47998" clip-path="url(#clipPath176)"/>
   <path transform="matrix(.26458 0 0 .26458 4.0562 -14.118)" d="m406.56 490.72v0.79999" clip-path="url(#clipPath178)"/>
   <path transform="matrix(.26458 0 0 .26458 4.0562 -14.118)" d="m410.88 463.84v27.68" clip-path="url(#clipPath180)"/>
   <path transform="matrix(.26458 0 0 .26458 4.0562 -14.118)" d="m413.12 488.16v3.36" clip-path="url(#clipPath182)"/>
   <path transform="matrix(.26458 0 0 .26458 4.0562 -14.118)" d="m415.2 491.04v0.47998" clip-path="url(#clipPath184)"/>
   <path transform="matrix(.26458 0 0 .26458 4.0562 -14.118)" d="m471.68 124.16v367.36" clip-path="url(#clipPath186)"/>
   <path transform="matrix(.26458 0 0 .26458 4.0562 -14.118)" d="m473.76 462.72v28.8" clip-path="url(#clipPath188)"/>
   <path transform="matrix(.26458 0 0 .26458 4.0562 -14.118)" d="m476 489.28v2.24" clip-path="url(#clipPath190)"/>
   <path transform="matrix(.26458 0 0 .26458 4.0562 -14.118)" d="m532.32 489.92v1.6" clip-path="url(#clipPath192)"/>
   <path transform="matrix(.26458 0 0 .26458 4.0562 -14.118)" d="m629.76 487.36v4.16" clip-path="url(#clipPath194)"/>
   <path transform="matrix(.26458 0 0 .26458 4.0562 -14.118)" d="m632 490.72v0.79999" clip-path="url(#clipPath196)"/>
  </g>
  <g font-size="3.175px" stroke-width=".26458">
   <text x="54.221252" y="114.3635" xml:space="preserve"><tspan x="54.221252 55.983696" y="114.3635" fill="#000000" font-family="CityBlueprint" font-size="3.169px" stroke-width=".26458">15</tspan></text>
   <text x="62.26458" y="89.640831" xml:space="preserve"><tspan x="62.26458 64.027023" y="89.640831" fill="#000000" font-family="CityBlueprint" font-size="3.169px" stroke-width=".26458">29</tspan></text>
   <text x="69.122581" y="99.843163" xml:space="preserve"><tspan x="69.122581 70.885025" y="99.843163" fill="#000000" font-family="CityBlueprint" font-size="3.169px" stroke-width=".26458">41</tspan></text>
   <text x="77.758583" y="112.79716" xml:space="preserve"><tspan x="77.758583 79.521027" y="112.79716" fill="#000000" font-family="CityBlueprint" font-size="3.169px" stroke-width=".26458">56</tspan></text>
   <text x="85.759575" y="34.311165" xml:space="preserve"><tspan x="85.759575 87.522018" y="34.311165" fill="#000000" font-family="CityBlueprint" font-size="3.169px" stroke-width=".26458">70</tspan></text>
   <text x="93.802917" y="114.3635" xml:space="preserve"><tspan x="93.802917 95.565361" y="114.3635" fill="#000000" font-family="CityBlueprint" font-size="3.169px" stroke-width=".26458">84</tspan></text>
   <text x="101.84625" y="99.081161" xml:space="preserve"><tspan x="101.84625 103.6087" y="99.081161" fill="#000000" font-family="CityBlueprint" font-size="3.169px" stroke-width=".26458">98</tspan></text>
   <text x="110.10124" y="107.92883" xml:space="preserve"><tspan x="110.10124 111.86369 113.62613" y="107.92883" fill="#000000" font-family="CityBlueprint" font-size="3.169px" stroke-width=".26458">114</tspan></text>
   <text x="126.18792" y="18.055166" xml:space="preserve"><tspan x="126.18792 127.95036 129.71281" y="18.055166" fill="#000000" font-family="CityBlueprint" font-size="3.169px" stroke-width=".26458">142</tspan></text>
   <text x="142.23224" y="114.82916" xml:space="preserve"><tspan x="142.23224 143.99469 145.75713" y="114.82916" fill="#000000" font-family="CityBlueprint" font-size="3.169px" stroke-width=".26458">170</tspan></text>
   <text x="168.01324" y="114.15183" xml:space="preserve"><tspan x="168.01324 169.77568 171.53813" y="114.15183" fill="#000000" font-family="CityBlueprint" font-size="3.169px" stroke-width=".26458">215</tspan></text>
  </g>
 </g>
</svg>
