<svg xmlns="http://www.w3.org/2000/svg" viewBox="0 0 875.85 294.57"><path fill="white" d="M57.69 289.12H82.4V186.15h78.61v102.96h24.72V161.44H57.69v127.68Zm-57.69 0h24.72V5.53H0v283.59ZM219.08 5.53v283.59h24.72V5.53h-24.72Zm-58.06 101.5H82.41V5.53H57.7v126.22h128.05V5.53h-24.72v101.5h-.01ZM532.66 209.21c-20.35 44.34-66.87 60.66-104.08 60.66-70.69 0-122.01-51.31-122.01-122.01s52.14-123.1 121.28-123.1 92.97 38 103.1 61.57c8.12-3.6 15.78-6.99 22.69-10.06C547.9 62.88 538.3 47 522.31 32.82 498.13 11.38 465.47.04 427.85.04s-75.47 14.55-102.56 40.98c-28.01 27.33-43.44 65.27-43.44 106.83s15.28 79.47 43.01 106.32c26.91 26.05 63.75 40.4 103.71 40.4 67.96 0 108.33-36.71 126.47-75.48-6.79-2.98-14.35-6.32-22.38-9.88ZM427.85 81c31.49 0 44.96 16.5 50.6 28.61 7.51-3.33 15.12-6.7 22.64-10.03-10.39-22.87-33.54-43.29-73.24-43.29-42.79 0-86.11 31.46-86.11 91.59 0 26.33 9.19 48.98 26.57 65.51 15.96 15.17 37.37 23.53 60.27 23.53 37.96 0 61.55-19.27 73.31-41.32-7.49-3.32-15.07-6.67-22.56-9.99-13.78 24.44-41.56 26.59-50.75 26.59-40.79 0-62.13-32.36-62.13-64.32 0-45.96 31.83-66.88 61.4-66.88ZM832.1 40.18c-1.31-1.25-2.65-2.45-4-3.65l16.64-21.49-17.29-13.39-16.78 21.67C787.03 8.16 758.88 0 729.11 0c-39.55 0-76.23 14.27-103.29 40.17-28.24 27.03-43.79 65.13-43.79 107.28s15.56 79.98 43.8 106.97c1.12 1.07 2.28 2.09 3.44 3.12l-16.87 21.78 17.29 13.39 16.96-21.9c23.84 15.42 52.32 23.73 82.47 23.73 39.37 0 75.94-14.25 102.98-40.13 28.21-27 43.75-64.99 43.75-106.96 0-42.12-15.54-80.22-43.75-107.27ZM644.44 237.95c-.51-.47-1.04-.92-1.54-1.4-23.65-22.6-36.16-53.41-36.16-89.1s12.51-66.78 36.17-89.42c22.44-21.48 53.05-33.31 86.2-33.31 24.19 0 47.04 6.39 66.34 18.25l-20.1 25.95c-13.57-8.25-29.53-12.68-46.24-12.68-42 0-87.21 28.43-87.21 90.86 0 28.12 9.26 49.29 23.28 64.07l-20.74 26.78Zm132.57-135.46c8.7 10.64 14.23 25.38 14.23 44.6 0 45.44-31.2 65.78-62.13 65.78-12.56 0-23.09-2.81-31.72-7.58l79.62-102.8Zm-96.26 88.58c-9.58-12.21-14.13-28.12-14.13-43.98 0-45.69 31.39-66.14 62.49-66.14 10.75 0 21.53 2.48 31.02 7.62l-79.38 102.5ZM815 236.56c-22.41 21.45-52.91 33.27-85.88 33.27-24.58 0-47.77-6.52-67.28-18.63l20.41-26.35c14.29 8.59 30.81 12.74 46.87 12.74 41.83 0 86.84-28.32 86.84-90.49 0-31.84-11.99-52.19-23.58-64.44l20.54-26.52c.69.63 1.4 1.24 2.08 1.89 23.64 22.67 36.13 53.59 36.13 89.43-.01 35.67-12.5 66.48-36.13 89.1Z"/></svg>
